<svg width="32" height="32" viewBox="0 0 32 32" fill="none" xmlns="http://www.w3.org/2000/svg">
<g clip-path="url(#clip0_40_3616)">
<rect width="32" height="32" rx="16" fill="#F1FAFE"/>
<path d="M23.273 11.3882C22.0534 8.57713 19.2572 6.61536 16 6.61536C12.7427 6.61536 9.94655 8.57713 8.72694 11.3882C7.91387 11.4577 7.27432 12.1381 7.27432 12.9725V16.1511C7.27432 16.9855 7.91387 17.6659 8.72694 17.7354C9.94655 20.5464 12.7427 22.5082 16 22.5082C19.2572 22.5082 22.0534 20.5464 23.273 17.7354C24.0861 17.6659 24.7256 16.9855 24.7256 16.1511V12.9725C24.7256 12.1381 24.0861 11.4577 23.273 11.3882ZM21.5527 13.7671V14.5618C21.5527 17.194 19.4208 19.3297 16.7932 19.3297H15.2067C12.5791 19.3297 10.4473 17.194 10.4473 14.5618V13.7671C10.4473 12.451 11.5132 11.3832 12.827 11.3832H19.1729C20.4868 11.3832 21.5527 12.451 21.5527 13.7671ZM14.2796 14.6959L13.9822 13.643C13.9376 13.4791 13.7888 13.3698 13.6203 13.3698C13.4517 13.3698 13.303 13.4791 13.2583 13.643L12.9609 14.6959L11.9098 14.9939C11.7462 15.0386 11.6371 15.1876 11.6371 15.3564C11.6371 15.5253 11.7462 15.6743 11.9098 15.719L12.9609 16.017L13.2583 17.0699C13.303 17.2338 13.4517 17.343 13.6203 17.343C13.7888 17.343 13.9376 17.2338 13.9822 17.0699L14.2796 16.017L15.3307 15.719C15.4943 15.6743 15.6034 15.5253 15.6034 15.3564C15.6034 15.1876 15.4943 15.0386 15.3307 14.9939L14.2796 14.6959ZM10.482 22.3344C7.20987 23.6307 4.89459 26.8291 4.89459 30.5689C4.89459 31.3834 5.55397 32.0439 6.36705 32.0439H11.2405V28.8654C11.2405 27.9863 11.9495 27.2761 12.827 27.2761H19.1729C20.0505 27.2761 20.7594 27.9863 20.7594 28.8654V32.0439H25.6329C26.446 32.0439 27.1054 31.3834 27.1054 30.5689C27.1054 26.8291 24.7901 23.6307 21.518 22.3344C19.9612 23.4419 18.0575 24.0975 16 24.0975C13.9425 24.0975 12.0387 23.4419 10.482 22.3344ZM13.6203 28.8654C13.184 28.8654 12.827 29.223 12.827 29.66V32.0439H14.4135V29.66C14.4135 29.223 14.0565 28.8654 13.6203 28.8654ZM18.3797 30.4547C18.816 30.4547 19.1729 30.0971 19.1729 29.66C19.1729 29.223 18.816 28.8654 18.3797 28.8654C17.9434 28.8654 17.5865 29.223 17.5865 29.66C17.5865 30.0971 17.9434 30.4547 18.3797 30.4547Z" fill="#5D3FAF"/>
</g>
<defs>
<clipPath id="clip0_40_3616">
<rect width="32" height="32" rx="16" fill="white"/>
</clipPath>
</defs>
</svg>
